<?xml version="1.0" encoding="UTF-8" standalone="no"?>
<svg width="136px" height="146px" viewBox="0 0 136 146" version="1.1" xmlns="http://www.w3.org/2000/svg" xmlns:xlink="http://www.w3.org/1999/xlink" xmlns:sketch="http://www.bohemiancoding.com/sketch/ns">
    <!-- Generator: Sketch 3.2 (9961) - http://www.bohemiancoding.com/sketch -->
    <title>AO Logo</title>
    <desc>Created with Sketch.</desc>
    <defs></defs>
    <g id="Page-1" stroke="none" stroke-width="1" fill="none" fill-rule="evenodd" sketch:type="MSPage">
        <g id="Desktop-v1" sketch:type="MSArtboardGroup" transform="translate(-444.000000, -2929.000000)">
            <g id="Sponsors" sketch:type="MSLayerGroup" transform="translate(51.000000, 2748.000000)">
                <g id="Gold" transform="translate(1.000000, 137.000000)" sketch:type="MSShapeGroup">
                    <g id="AO-Logo" transform="translate(391.000000, 44.000000)">
                        <path d="M1.20853571,47.2618658 C-0.473628571,51.9554228 7.06332857,58.8291812 23.6638143,67.6734497 L25.0935071,64.9513826 C2.72042857,53.0077987 4.03073571,48.4994362 4.09923571,48.3005235 C4.69322857,46.6572886 11.2633571,44.6711007 31.8906643,48.9952483 L32.5179286,45.9547248 C13.4719929,41.9754899 2.95822143,42.4164295 1.20853571,47.2618658" id="Fill-1" fill="#00CBC4"></path>
                        <path d="M56.7992214,0.832885906 C54.1952429,1.24736913 52.3623786,4.13405369 51.2184286,9.66147651 C50.1478714,14.7812752 49.7153429,22.418349 49.8347286,31.747651 L52.8585143,31.3968591 C52.5111214,4.9326443 57.0927929,3.90868456 57.2806786,3.88320805 C58.9833929,3.60688591 63.8165571,8.4337047 70.0598429,28.6826309 L73.1560429,28.2514899 C67.3981286,9.58700671 61.7811286,0.0333154362 56.7992214,0.832885906" id="Fill-2" fill="#00CBC4"></path>
                        <path d="M111.636407,80.3039195 C135.306093,93.6124564 133.811814,98.2844564 133.743314,98.4755302 C133.077886,100.179517 126.192657,102.019705 104.8324,96.8205369 L104.112171,99.8228456 C117.618414,103.090698 134.21205,105.730456 136.606614,99.608255 C138.456114,94.8255302 130.573721,87.4197047 113.142429,77.6161477 L111.636407,80.3039195" id="Fill-3" fill="#00CBC4"></path>
                        <path d="M83.0875643,114.513973 C83.8802071,141.76502 79.1400071,142.875208 78.9452714,142.899705 C77.1554643,143.216201 72.0541714,138.205168 65.4997,117.106698 L62.5757286,118.025812 C66.7013857,131.359826 72.9994714,147.035718 79.4492357,145.946107 C84.4869214,145.096564 86.7386143,134.490497 86.1593,114.418926 L83.0875643,114.513973" id="Fill-4" fill="#00CBC4"></path>
                        <path d="M22.5374786,72.0769664 C22.1607286,84.2312215 26.5241786,95.856349 34.8146357,104.747651 C43.1139,113.633074 54.3645357,118.754832 66.4870786,119.130121 C91.5042571,119.928711 112.505379,100.110926 113.299,74.9499329 L113.304871,74.7451409 C114.035864,49.5812081 94.2775286,28.499396 69.2515429,27.7635168 C44.2324071,27.0276376 23.2684714,46.9130336 22.5374786,72.0769664 M67.0096357,102.210779 C59.3806929,101.970711 52.3144286,98.7479329 47.0966857,93.1636779 C41.8564357,87.5588456 39.1174143,80.2568859 39.3640143,72.5884564 C39.8249214,56.7303087 53.0092143,44.2340805 68.7593214,44.697557 C84.49475,45.1600537 96.9294571,58.4097987 96.4695286,74.248349 L96.4646357,74.4247248 C95.9733929,90.2338792 82.7519143,102.71247 67.0096357,102.210779" id="Fill-5" fill="#4D4845"></path>
                        <path d="M82.4211571,48.6895302 C81.4171429,48.0976913 80.3827929,47.5685638 79.3210429,47.1080268 C73.2049714,51.4507919 66.78065,56.3070067 60.2261786,61.582604 C52.8428571,67.5215705 46.0075357,73.4144832 39.9139714,79.0398926 C40.1380643,80.1735973 40.43555,81.2975034 40.7995786,82.4086711 C46.9391357,76.6774362 54.0690071,70.4788054 62.1471143,63.9832752 C69.3405929,58.1981477 76.1387286,53.1018658 82.4211571,48.6895302" id="Fill-6" fill="#FD4F57"></path>
                        <path d="M125.8619,26.6004161 C125.161243,25.7116779 124.106343,25.1786309 122.721664,25.0198926 C117.824893,24.4819463 107.721143,28.8756644 94.9155571,36.741047 C95.7933357,37.3916779 96.6525214,38.0736644 97.4882214,38.7928859 C109.820179,31.3184698 118.684079,27.6870872 122.374271,28.0966711 C122.748086,28.1309664 123.244221,28.2397315 123.470271,28.5287919 C124.275636,29.5498121 123.07395,34.6392349 112.602257,46.5112886 C103.574936,56.7538255 90.4317429,68.9570738 75.5926857,80.9006577 C45.3655929,105.198389 21.9973071,117.52804 15.3665071,116.779423 C14.9926929,116.744148 14.4965571,116.627544 14.2626786,116.358081 C14.0444571,116.080779 14.0513071,115.571248 14.0855571,115.187141 C14.47405,111.720376 19.2700286,104.604591 28.0067143,95.170443 C27.4812214,94.1964564 27.0027,93.2067919 26.5545143,92.2083087 C17.2668929,102.105933 11.5539929,110.233919 11.0510071,114.846148 C10.8924786,116.251275 11.1635429,117.409477 11.8720286,118.275678 C12.5726857,119.168336 13.6266071,119.701383 15.0191143,119.855221 C23.8301714,120.830188 49.5245214,105.802966 77.5067714,83.3013289 C100.411214,64.8876913 132.204021,34.5735839 125.8619,26.6004161" id="Fill-7" fill="#FD4F57"></path>
                        <path d="M35.9341214,68.7013289 L34.13355,69.2490738 L34.0327571,72.8510604 L35.8000571,73.5134497 L35.7433,75.5790067 L25.7657857,71.6066309 L25.8088429,70.0545235 L35.9918571,66.6367517 L35.9341214,68.7013289 L35.9341214,68.7013289 Z M28.7611929,70.8648725 L32.3916929,72.2504027 L32.4631286,69.7292081 L28.7611929,70.8648725 L28.7611929,70.8648725 Z" id="Fill-8" fill="#FFFFFF"></path>
                        <path d="M31.6059,56.3795168 L39.3062786,59.5474228 L38.5635429,61.3778121 L30.8631643,58.2108859 L29.8650214,60.6615302 L28.2415714,59.9932617 L30.9786357,53.2615839 L32.6020857,53.9298523 L31.6059,56.3795168" id="Fill-9" fill="#FFFFFF"></path>
                        <path d="M46.4664857,48.1192483 C46.47725,49.085396 46.1572571,49.9643356 45.3450429,50.7991812 C44.5347857,51.6340268 43.6579857,51.9857987 42.6970286,51.9965772 C41.2761429,52.012255 40.4570786,51.2273826 39.0802286,49.8722282 C37.7043571,48.5180537 36.9038857,47.7116242 36.8892071,46.282 C36.8784429,45.3168322 37.2082214,44.4271141 38.0204357,43.5922685 C38.8306929,42.7574228 39.6986857,42.4174094 40.6596429,42.405651 C42.07955,42.3889933 42.9103571,43.165047 44.2862286,44.5182416 C45.6621,45.873396 46.4537643,46.6896242 46.4664857,48.1192483 L46.4664857,48.1192483 Z M40.5402571,44.2987517 C40.1096857,44.274255 39.6517143,44.4398523 39.2749643,44.8259195 C38.8991929,45.2129664 38.7436,45.6784027 38.7690429,46.1203221 C38.8150357,46.683745 39.0802286,47.1031275 40.4561,48.457302 C41.8319714,49.8104966 42.2449286,50.0574228 42.80565,50.0917181 C43.2460071,50.107396 43.7157214,49.9506174 44.0905143,49.5645503 C44.4662857,49.1775034 44.6130714,48.7032483 44.5778429,48.2711275 C44.53185,47.7077047 44.2872071,47.2873423 42.9103571,45.9341477 C41.5354643,44.580953 41.1009786,44.333047 40.5402571,44.2987517 L40.5402571,44.2987517 Z" id="Fill-10" fill="#FFFFFF"></path>
                        <path d="M58.9060857,42.536953 L56.87555,36.9948322 L56.3892,41.2690067 L55.1425,41.7324832 L52.0022643,38.799745 L54.0337786,44.3418658 L52.1881929,45.0258121 L48.7054571,35.5181745 L50.5236429,34.8450067 L54.8763286,39.0701879 L55.4487929,33.0185369 L57.2679571,32.3453691 L60.7497143,41.8530067 L58.9060857,42.536953" id="Fill-11" fill="#FFFFFF"></path>
                        <path d="M66.47925,40.865302 L66.6769214,30.7325101 L68.6428714,30.7726846 L68.4471571,40.9044966 L66.47925,40.865302" id="Fill-12" fill="#FFFFFF"></path>
                        <path d="M77.12415,42.2988456 C76.0340214,41.9000403 75.3646786,41.2464698 74.94585,40.3665503 C74.3450071,39.0721477 74.7178429,37.996255 75.3754429,36.1756644 C76.0340214,34.3560537 76.4332786,33.2909396 77.7210786,32.6863624 C78.6047286,32.2826577 79.5324143,32.2130872 80.6235214,32.6118926 C82.3937571,33.2576242 83.3830929,34.7705369 83.0083,36.8909664 L81.1206357,36.2001611 C81.2136,35.3564966 80.9425357,34.6068993 80.0256143,34.2708054 C79.5187143,34.0865906 79.0392143,34.1228456 78.6624643,34.3335168 C78.1722,34.6078792 77.8815643,35.0321611 77.2249429,36.8507919 C76.5673429,38.6704027 76.5184143,39.1828725 76.7190214,39.7110201 C76.8726571,40.1157047 77.2180929,40.4537584 77.7240143,40.638953 C78.6409357,40.975047 79.3425714,40.5791812 79.8083714,39.8717181 L81.6833143,40.5576242 C80.61765,42.4252483 78.8797071,42.9406577 77.12415,42.2988456" id="Fill-13" fill="#FFFFFF"></path>
                        <path d="M61.91715,114.141624 C61.1147214,114.61294 60.2252,114.761879 59.1389857,114.473799 C58.0508143,114.186698 57.3384143,113.612497 56.8696786,112.804107 C56.1758714,111.606711 56.444,110.538658 56.91665,108.725906 C57.3932143,106.913154 57.68385,105.85098 58.8737929,105.154295 C59.6762214,104.68298 60.5794429,104.53698 61.6666357,104.82506 C62.75285,105.112161 63.4535071,105.682443 63.9222429,106.491812 C64.6170286,107.687248 64.3626,108.760201 63.8889714,110.572953 C63.4124071,112.385705 63.1070929,113.44494 61.91715,114.141624 L61.91715,114.141624 Z M62.2792214,107.294322 C62.0942714,106.919034 61.7370929,106.609396 61.2331286,106.477114 C60.7291643,106.341893 60.2672786,106.434 59.9081429,106.667208 C59.4589786,106.973906 59.2348857,107.400148 58.7593,109.212899 C58.2856714,111.025651 58.2749071,111.493047 58.5156357,111.98494 C58.7123286,112.365128 59.0695071,112.686523 59.5724929,112.820765 C60.0764571,112.954027 60.5422571,112.850161 60.8886714,112.613034 C61.3388143,112.304376 61.5717143,111.894792 62.0473,110.08302 C62.51995,108.271248 62.5209286,107.787195 62.2792214,107.294322 L62.2792214,107.294322 Z" id="Fill-14" fill="#FFFFFF"></path>
                        <path d="M75.00065,114.775597 L70.9474071,115.291987 L69.7241929,105.551141 L73.6140143,105.056309 C75.5036357,104.816242 76.7395714,105.742215 76.9480071,107.409946 C77.0850071,108.491718 76.4655714,109.27953 76.0056429,109.57447 C76.6241,109.773383 77.4490357,110.293691 77.6124571,111.593973 C77.8424214,113.414564 76.7278286,114.556107 75.00065,114.775597 L75.00065,114.775597 Z M73.6776214,106.773034 L71.8281214,107.007221 L72.1109286,109.252094 L73.9604286,109.016926 C74.7618786,108.91502 75.1533071,108.40549 75.0701286,107.736242 C74.98695,107.065034 74.48005,106.670148 73.6776214,106.773034 L73.6776214,106.773034 Z M74.2960786,110.710134 L72.3252357,110.96098 L72.6256571,113.354792 L74.5974786,113.104926 C75.4537286,112.995181 75.7932929,112.397463 75.7110929,111.739973 C75.6288929,111.082483 75.1533071,110.600389 74.2960786,110.710134 L74.2960786,110.710134 Z" id="Fill-15" fill="#FFFFFF"></path>
                        <path d="M86.6681571,111.284336 C85.7267714,111.76643 84.9576143,111.853638 83.9780643,111.536161 L84.5329143,109.840993 C84.9576143,109.979154 85.3324071,110.049705 85.8931286,109.759664 C86.7229571,109.333423 87.0106571,108.566188 86.4988643,107.559866 L83.5523857,101.76494 L85.2492286,100.892859 L88.2328929,106.760295 C89.2134214,108.688671 88.2788857,110.455369 86.6681571,111.284336" id="Fill-16" fill="#FFFFFF"></path>
                        <path d="M96.3658,104.676121 L89.2232071,97.9963758 L93.5974214,93.2626443 L94.8411857,94.4267248 L91.7635786,97.7572886 L93.4379143,99.3231141 L96.0604857,96.4873826 L97.3032714,97.6504832 L94.6826571,100.485235 L96.4176643,102.107893 L99.4952714,98.7783087 L100.739036,99.9414094 L96.3658,104.676121" id="Fill-17" fill="#FFFFFF"></path>
                        <path d="M106.352121,90.0261477 C105.931336,91.0726443 105.279607,91.6997584 104.417486,92.0779866 C103.150236,92.6178926 102.127629,92.2151678 100.40045,91.5135839 C98.6722929,90.8090604 97.6633857,90.3818389 97.12615,89.1080134 C96.7679929,88.2329933 96.7337429,87.3256376 97.1545286,86.2781611 C97.8395286,84.578094 99.3298929,83.6687785 101.357493,84.1067785 L100.6265,85.9214899 C99.8172214,85.7990067 99.0862286,86.0371141 98.7310071,86.9199732 C98.5343143,87.4050067 98.5529071,87.8733826 98.74275,88.2486711 C98.98935,88.7356644 99.3895857,89.0315839 101.116764,89.7351275 C102.843943,90.439651 103.335186,90.5062819 103.850893,90.3279463 C104.245257,90.1907651 104.581886,89.8674094 104.778579,89.3823758 C105.1338,88.4995168 104.7776,87.8057718 104.11315,87.3266174 L104.838271,85.5236644 C106.594807,86.628953 107.032229,88.3378389 106.352121,90.0261477" id="Fill-18" fill="#FFFFFF"></path>
                        <path d="M101.799807,74.6442148 L109.855407,74.8548859 L109.806479,76.7705235 L101.7499,76.5588725 L101.683357,79.1212215 L99.9845571,79.0771275 L100.166571,72.0358121 L101.86635,72.079906 L101.799807,74.6442148" id="Fill-19" fill="#FFFFFF"></path>
                        <path d="M68.1819643,68.2417718 C70.8935857,68.2417718 73.0914571,70.452349 73.0914571,73.1793154 C73.0914571,75.9062819 70.8935857,78.1168591 68.1819643,78.1168591 C65.4703429,78.1168591 63.2724714,75.9062819 63.2724714,73.1793154 C63.2724714,70.452349 65.4703429,68.2417718 68.1819643,68.2417718" id="Fill-20" fill="#FD4F57"></path>
                    </g>
                </g>
            </g>
        </g>
    </g>
</svg>