<?xml version="1.0" encoding="UTF-8" standalone="no"?>
<svg width="237px" height="186px" viewBox="0 0 237 186" version="1.1" xmlns="http://www.w3.org/2000/svg" xmlns:xlink="http://www.w3.org/1999/xlink" xmlns:sketch="http://www.bohemiancoding.com/sketch/ns">
    <!-- Generator: Sketch 3.2 (9961) - http://www.bohemiancoding.com/sketch -->
    <title>Logo</title>
    <desc>Created with Sketch.</desc>
    <defs>
        <path d="M8.55452673,29.6921924 L8.55452673,46.1421266 L13.3583525,46.1421266 C16.1812337,46.1421266 17.7050733,44.8415392 17.7050733,40.8630228 L17.7050733,36.1956 C17.7050733,31.2225722 16.103798,29.6921924 12.2911485,29.6921924 L8.55452673,29.6921924 L8.55452673,29.6921924 Z M8.55452673,7.88451646 L8.55452673,22.0402937 L11.8335743,22.0402937 C14.960097,22.0402937 16.8664218,20.6629519 16.8664218,16.3783595 L16.8664218,13.3943544 C16.8664218,9.56887595 15.5711347,7.88451646 12.596198,7.88451646 L8.55452673,7.88451646 L8.55452673,7.88451646 Z M25.2552832,12.552881 L25.2552832,14.4656203 C25.2552832,19.9745165 23.5779802,23.493919 19.8399505,25.2536203 C24.3401347,27.0133215 26.094404,31.0695342 26.094404,36.7314684 L26.094404,41.0923443 C26.094404,49.3554532 21.7476832,53.7944962 13.3583525,53.7944962 L0.16660396,53.7944962 L0.16660396,0.233559494 L12.8247505,0.233559494 C21.5191307,0.233559494 25.2552832,4.28835949 25.2552832,12.552881 L25.2552832,12.552881 Z" id="path-1"></path>
        <path id="path-3" d="M0.211188119,0.233559494 L8.59911089,0.233559494 L8.59911089,46.1421266 L22.4023663,46.1421266 L22.4023663,53.7944962 L0.211188119,53.7944962 L0.211188119,0.233559494 L0.211188119,0.233559494 Z"></path>
        <path d="M10.5049663,36.8077519 L18.5878396,36.8077519 L14.5461683,9.72191392 L10.5049663,36.8077519 L10.5049663,36.8077519 Z M29.6447109,53.7944962 L21.1802911,53.7944962 L19.7315406,44.0763494 L9.43729307,44.0763494 L7.98854257,53.7944962 L0.285338614,53.7944962 L8.82719406,0.233559494 L21.1042634,0.233559494 L29.6447109,53.7944962 L29.6447109,53.7944962 Z" id="path-5"></path>
        <path d="M10.6030515,36.8077519 L18.6859248,36.8077519 L14.6442535,9.72191392 L10.6030515,36.8077519 L10.6030515,36.8077519 Z M29.742796,53.7944962 L21.2783762,53.7944962 L19.8296257,44.0763494 L9.53537822,44.0763494 L8.08662772,53.7944962 L0.383423762,53.7944962 L8.92527921,0.233559494 L21.2023485,0.233559494 L29.742796,53.7944962 L29.742796,53.7944962 Z" id="path-7"></path>
        <path id="path-9" d="M7.78251683,15.0010177 L7.78251683,53.7944962 L0.233245545,53.7944962 L0.233245545,0.233559494 L10.7574535,0.233559494 L19.374398,32.293838 L19.374398,0.233559494 L26.8471723,0.233559494 L26.8471723,53.7944962 L18.2302277,53.7944962 L7.78251683,15.0010177 L7.78251683,15.0010177 Z"></path>
        <path id="path-11" d="M25.2820337,34.2946329 L25.2820337,41.4101924 C25.2820337,49.9793772 21.0118099,54.8775342 12.7764119,54.8775342 C4.54101386,54.8775342 0.269851485,49.9793772 0.269851485,41.4101924 L0.269851485,13.5591646 C0.269851485,4.98903797 4.54101386,0.0922936709 12.7764119,0.0922936709 C21.0118099,0.0922936709 25.2820337,4.98903797 25.2820337,13.5591646 L25.2820337,18.7619848 L17.3516851,18.7619848 L17.3516851,13.0237671 C17.3516851,9.19828861 15.6739129,7.74419241 13.0054337,7.74419241 C10.3364851,7.74419241 8.65871287,9.19828861 8.65871287,13.0237671 L8.65871287,41.9460608 C8.65871287,45.772481 10.3364851,47.1484101 13.0054337,47.1484101 C15.6739129,47.1484101 17.3516851,45.772481 17.3516851,41.9460608 L17.3516851,34.2946329 L25.2820337,34.2946329 L25.2820337,34.2946329 Z"></path>
        <path id="path-13" d="M8.7422495,22.8050127 L20.256695,22.8050127 L20.256695,30.4564405 L8.7422495,30.4564405 L8.7422495,46.1421266 L23.2316317,46.1421266 L23.2316317,53.7944962 L0.352918812,53.7944962 L0.352918812,0.233559494 L23.2316317,0.233559494 L23.2316317,7.88451646 L8.7422495,7.88451646 L8.7422495,22.8050127 L8.7422495,22.8050127 Z"></path>
        <path d="M8.64510297,7.88451646 L8.64510297,46.1421266 L13.372901,46.1421266 C16.0418495,46.1421266 17.6431248,44.7647848 17.6431248,40.9393063 L17.6431248,13.0882785 C17.6431248,9.2628 16.0418495,7.88451646 13.372901,7.88451646 L8.64510297,7.88451646 L8.64510297,7.88451646 Z M0.256241584,0.233559494 L13.5254257,0.233559494 C21.9133485,0.233559494 26.0324554,4.90051139 26.0324554,13.470638 L26.0324554,40.5569468 C26.0324554,49.1261316 21.9133485,53.7944962 13.5254257,53.7944962 L0.256241584,53.7944962 L0.256241584,0.233559494 L0.256241584,0.233559494 Z" id="path-15"></path>
    </defs>
    <g id="Page-1" stroke="none" stroke-width="1" fill="none" fill-rule="evenodd" sketch:type="MSPage">
        <g id="Desktop-v1" sketch:type="MSArtboardGroup" transform="translate(-52.000000, -120.000000)">
            <g id="Banner-IMG" sketch:type="MSLayerGroup" transform="translate(-130.000000, 79.000000)">
                <g id="Logo" transform="translate(182.000000, 41.000000)">
                    <g id="Group-3" transform="translate(0.938614, 0.470886)">
                        <mask id="mask-2" sketch:name="Clip 2" fill="white">
                            <use xlink:href="#path-1"></use>
                        </mask>
                        <g id="Clip-2"></g>
                        <path d="M0.131405941,0.216607595 L26.1497822,0.216607595 L26.1497822,53.8411139 L0.131405941,53.8411139 L0.131405941,0.216607595 Z" id="Fill-1" fill="#FFFFFF" sketch:type="MSShapeGroup" mask="url(#mask-2)"></path>
                    </g>
                    <g id="Group-6" transform="translate(62.887129, 0.470886)">
                        <mask id="mask-4" sketch:name="Clip 5" fill="white">
                            <use xlink:href="#path-3"></use>
                        </mask>
                        <g id="Clip-5"></g>
                        <path d="M0.187722772,0.216607595 L22.4328713,0.216607595 L22.4328713,53.8411139 L0.187722772,53.8411139 L0.187722772,0.216607595 Z" id="Fill-4" fill="#FFFFFF" sketch:type="MSShapeGroup" mask="url(#mask-4)"></path>
                    </g>
                    <g id="Group-9" transform="translate(29.566337, 0.470886)">
                        <mask id="mask-6" sketch:name="Clip 8" fill="white">
                            <use xlink:href="#path-5"></use>
                        </mask>
                        <g id="Clip-8"></g>
                        <path d="M0.281584158,0.216607595 L29.6789703,0.216607595 L29.6789703,53.8411139 L0.281584158,53.8411139 L0.281584158,0.216607595 Z" id="Fill-7" fill="#FFFFFF" sketch:type="MSShapeGroup" mask="url(#mask-6)"></path>
                    </g>
                    <path d="M202.311648,135.378805 L213.115562,63.549843 L235.152808,63.549843 L235.152808,164.715949 L220.173469,164.715949 L220.173469,92.1660608 L209.226416,164.715949 L194.245669,164.715949 L182.434622,93.1775241 L182.434622,164.715949 L168.607432,164.715949 L168.607432,63.549843 L190.644677,63.549843 L202.311648,135.378805 L202.311648,135.378805 Z M125.252857,132.631656 L140.521758,132.631656 L132.886604,81.4712962 L125.252857,132.631656 L125.252857,132.631656 Z M161.408263,164.715949 L145.418976,164.715949 L142.682448,146.362223 L123.236246,146.362223 L120.500655,164.715949 L105.952141,164.715949 L122.084097,63.549843 L145.274899,63.549843 L161.408263,164.715949 L161.408263,164.715949 Z M72.9692495,106.184339 L94.7183406,106.184339 L94.7183406,120.637716 L72.9692495,120.637716 L72.9692495,150.264456 L100.335945,150.264456 L100.335945,164.715949 L57.1240396,164.715949 L57.1240396,63.549843 L100.335945,63.549843 L100.335945,78.0027494 L72.9692495,78.0027494 L72.9692495,106.184339 L72.9692495,106.184339 Z M1.24084752,63.549843 L50.2139644,63.549843 L50.2139644,78.0027494 L33.6488376,78.0027494 L33.6488376,164.715949 L17.8050356,164.715949 L17.8050356,78.0027494 L1.24084752,78.0027494 L1.24084752,63.549843 L1.24084752,63.549843 Z" id="Stroke-10" stroke="#FFFFFF" stroke-width="1.5" sketch:type="MSShapeGroup"></path>
                    <path d="M0.0112633663,175.213884 L236.576685,175.213884 L236.576685,185.541828 L0.0112633663,185.541828 L0.0112633663,175.213884 Z" id="Fill-11" fill="#FFFFFF" sketch:type="MSShapeGroup"></path>
                    <g id="Group-15" transform="translate(86.352475, 0.470886)">
                        <mask id="mask-8" sketch:name="Clip 14" fill="white">
                            <use xlink:href="#path-7"></use>
                        </mask>
                        <g id="Clip-14"></g>
                        <path d="M0.375445545,0.216607595 L29.7728317,0.216607595 L29.7728317,53.8411139 L0.375445545,53.8411139 L0.375445545,0.216607595 Z" id="Fill-13" fill="#FFFFFF" sketch:type="MSShapeGroup" mask="url(#mask-8)"></path>
                    </g>
                    <g id="Group-18" transform="translate(119.673267, 0.470886)">
                        <mask id="mask-10" sketch:name="Clip 17" fill="white">
                            <use xlink:href="#path-9"></use>
                        </mask>
                        <g id="Clip-17"></g>
                        <path d="M0.225267327,0.216607595 L26.8631287,0.216607595 L26.8631287,53.8411139 L0.225267327,53.8411139 L0.225267327,0.216607595 Z" id="Fill-16" fill="#FFFFFF" sketch:type="MSShapeGroup" mask="url(#mask-10)"></path>
                    </g>
                    <g id="Group-21" transform="translate(151.586139, 0.000000)">
                        <mask id="mask-12" sketch:name="Clip 20" fill="white">
                            <use xlink:href="#path-11"></use>
                        </mask>
                        <g id="Clip-20"></g>
                        <path d="M0.244039604,0.0659240506 L25.3050297,0.0659240506 L25.3050297,54.9335696 L0.244039604,54.9335696 L0.244039604,0.0659240506 Z" id="Fill-19" fill="#FFFFFF" sketch:type="MSShapeGroup" mask="url(#mask-12)"></path>
                    </g>
                    <g id="Group-24" transform="translate(181.621782, 0.470886)">
                        <mask id="mask-14" sketch:name="Clip 23" fill="white">
                            <use xlink:href="#path-13"></use>
                        </mask>
                        <g id="Clip-23"></g>
                        <path d="M0.33790099,0.216607595 L23.2588515,0.216607595 L23.2588515,53.8411139 L0.33790099,53.8411139 L0.33790099,0.216607595 Z" id="Fill-22" fill="#FFFFFF" sketch:type="MSShapeGroup" mask="url(#mask-14)"></path>
                    </g>
                    <g id="Group-27" transform="translate(209.780198, 0.470886)">
                        <mask id="mask-16" sketch:name="Clip 26" fill="white">
                            <use xlink:href="#path-15"></use>
                        </mask>
                        <g id="Clip-26"></g>
                        <path d="M0.225267327,0.216607595 L26.0746931,0.216607595 L26.0746931,53.8411139 L0.225267327,53.8411139 L0.225267327,0.216607595 Z" id="Fill-25" fill="#FFFFFF" sketch:type="MSShapeGroup" mask="url(#mask-16)"></path>
                    </g>
                </g>
            </g>
        </g>
    </g>
</svg>