<?xml version="1.0" encoding="UTF-8" standalone="no"?>
<svg width="21px" height="17px" viewBox="0 0 21 17" version="1.1" xmlns="http://www.w3.org/2000/svg" xmlns:xlink="http://www.w3.org/1999/xlink" xmlns:sketch="http://www.bohemiancoding.com/sketch/ns">
    <!-- Generator: Sketch 3.2 (9964) - http://www.bohemiancoding.com/sketch -->
    <title>Rectangle 22</title>
    <desc>Created with Sketch.</desc>
    <defs></defs>
    <g id="Page-1" stroke="none" stroke-width="1" fill="none" fill-rule="evenodd" sketch:type="MSPage">
        <g id="Desktop-v1" sketch:type="MSArtboardGroup" transform="translate(-66.000000, -4156.000000)" fill="#FFFFFF">
            <g id="Footer" sketch:type="MSLayerGroup" transform="translate(0.000000, 4092.000000)">
                <g id="Email-Updates" transform="translate(52.000000, 50.000000)" sketch:type="MSShapeGroup">
                    <path d="M31.8913703,18.4722685 L31.8913703,28.5827436 L31.8913703,28.5827436 L17.4086252,28.5827436 L17.4086252,28.5827436 L17.4086252,18.4434177 L17.4086252,18.4434177 L24.6426433,25.6774359 L24.6644231,25.6556561 L24.6862029,25.6774359 L31.8913703,18.4722685 Z M30.865917,16.0792049 L18.4629291,16.0792049 L24.6644231,22.2806988 L30.865917,16.0792049 Z M34.3086267,28.5827436 L34.3380516,28.5827436 L34.3380516,30.5827436 L15,30.5827436 L15,29.5396024 L14.9913687,29.5396024 L14.9913687,15.5396024 L15,15.5396024 L15,14.0792049 L34.3380516,14.0792049 L34.3380516,16.0792049 L34.3086267,16.0792049 L34.3086267,28.5827436 Z" id="Rectangle-22"></path>
                </g>
            </g>
        </g>
    </g>
</svg>