<?xml version="1.0" encoding="UTF-8" standalone="no"?>
<svg width="347px" height="347px" viewBox="0 0 347 347" version="1.1" xmlns="http://www.w3.org/2000/svg" xmlns:xlink="http://www.w3.org/1999/xlink" xmlns:sketch="http://www.bohemiancoding.com/sketch/ns">
    <!-- Generator: Sketch 3.2.2 (9983) - http://www.bohemiancoding.com/sketch -->
    <title>Slice 1</title>
    <desc>Created with Sketch.</desc>
    <defs></defs>
    <g id="Page-1" stroke="none" stroke-width="1" fill="none" fill-rule="evenodd" sketch:type="MSPage">
        <circle id="Oval-1" fill="#00CDBD" sketch:type="MSShapeGroup" cx="173.5" cy="173.5" r="173.5"></circle>
        <path d="M124,96.9186992 C127.072984,94.2086585 130.439658,91.6341585 134.100124,89.195122 C137.76059,86.7560854 141.714738,84.633252 145.962687,82.8265583 C150.210635,81.0198645 154.820041,79.5971145 159.791045,78.5582656 C164.762048,77.5194167 170.139689,77 175.924129,77 C183.787353,77 190.950009,78.084 197.412313,80.2520325 C203.874618,82.420065 209.410425,85.5139817 214.0199,89.5338753 C218.629376,93.553769 222.199407,98.4091856 224.7301,104.100271 C227.260792,109.791356 228.526119,116.159856 228.526119,123.205962 C228.526119,130.071398 227.531934,136.010815 225.543532,141.02439 C223.555131,146.037965 221.047072,150.396549 218.019279,154.100271 C214.991486,157.803993 211.715192,161.010827 208.190299,163.720867 C204.665405,166.430908 201.321326,168.982825 198.15796,171.376694 C194.994594,173.770563 192.260584,176.11923 189.955846,178.422764 C187.651108,180.726299 186.272805,183.323382 185.820896,186.214092 L182.702736,205.99729 L159.791045,205.99729 L157.486318,183.910569 C157.395937,183.458896 157.350746,183.074979 157.350746,182.758808 L157.350746,181.607046 C157.350746,177.63232 158.344932,174.17707 160.333333,171.241192 C162.321735,168.305315 164.807199,165.550148 167.789801,162.97561 C170.772403,160.401071 173.980912,157.894321 177.415423,155.455285 C180.849934,153.016248 184.058443,150.373998 187.041045,147.528455 C190.023647,144.682913 192.509111,141.453496 194.497512,137.840108 C196.485914,134.226721 197.4801,129.981054 197.4801,125.102981 C197.4801,121.850932 196.870031,118.937682 195.649876,116.363144 C194.42972,113.788605 192.735085,111.575438 190.56592,109.723577 C188.396755,107.871716 185.798315,106.448966 182.770522,105.455285 C179.742729,104.461603 176.466436,103.96477 172.941542,103.96477 C167.789775,103.96477 163.428915,104.529353 159.858831,105.658537 C156.288747,106.78772 153.260999,108.052387 150.775498,109.452575 C148.289996,110.852762 146.188649,112.117429 144.471393,113.246612 C142.754137,114.375796 141.217668,114.940379 139.86194,114.940379 C136.608193,114.940379 134.258299,113.585379 132.812189,110.875339 L124,96.9186992 Z M149.623134,256.674797 C149.623134,253.874421 150.142822,251.209588 151.182214,248.680217 C152.221606,246.150846 153.667694,243.982846 155.520522,242.176152 C157.373351,240.369458 159.565079,238.924125 162.095771,237.840108 C164.626464,236.756092 167.337879,236.214092 170.2301,236.214092 C173.031938,236.214092 175.698163,236.756092 178.228856,237.840108 C180.759548,238.924125 182.928681,240.369458 184.736318,242.176152 C186.543956,243.982846 187.990044,246.150846 189.074627,248.680217 C190.159209,251.209588 190.701493,253.874421 190.701493,256.674797 C190.701493,259.565507 190.159209,262.252923 189.074627,264.737127 C187.990044,267.221331 186.543956,269.366748 184.736318,271.173442 C182.928681,272.980136 180.759548,274.402886 178.228856,275.441734 C175.698163,276.480583 173.031938,277 170.2301,277 C167.337879,277 164.626464,276.480583 162.095771,275.441734 C159.565079,274.402886 157.373351,272.980136 155.520522,271.173442 C153.667694,269.366748 152.221606,267.221331 151.182214,264.737127 C150.142822,262.252923 149.623134,259.565507 149.623134,256.674797 L149.623134,256.674797 Z" id="?" fill="#FFFFFF" sketch:type="MSShapeGroup"></path>
    </g>
</svg>