<?xml version="1.0" encoding="UTF-8" standalone="no"?>
<svg width="188px" height="31px" viewBox="0 0 188 31" version="1.1" xmlns="http://www.w3.org/2000/svg" xmlns:xlink="http://www.w3.org/1999/xlink" xmlns:sketch="http://www.bohemiancoding.com/sketch/ns">
    <!-- Generator: Sketch 3.2 (9961) - http://www.bohemiancoding.com/sketch -->
    <title>Group</title>
    <desc>Created with Sketch.</desc>
    <defs></defs>
    <g id="Page-1" stroke="none" stroke-width="1" fill="none" fill-rule="evenodd" sketch:type="MSPage">
        <g id="Desktop-v1" sketch:type="MSArtboardGroup" transform="translate(-612.000000, -2987.000000)" fill="#1A1918">
            <g id="Sponsors" sketch:type="MSLayerGroup" transform="translate(51.000000, 2748.000000)">
                <g id="Gold" transform="translate(1.000000, 137.000000)" sketch:type="MSShapeGroup">
                    <g id="vh_id_201405" transform="translate(168.000000, 102.000000)">
                        <g id="Group-12">
                            <g id="Group" transform="translate(392.000000, 0.000000)">
                                <path d="M28.557,8.807 L34.981,8.807 L34.981,30.551 L28.557,30.551 L28.557,8.807 Z M28.557,0.819 L34.981,0.819 L34.981,6.087 L28.557,6.087 L28.557,0.819 Z" id="Fill-2"></path>
                                <path d="M45.703,31 C43.342,31 40.681,30.418 38.533,29.703 L38.533,24.499 C40.342,25.374 42.983,25.906 45.39,25.906 C47.312,25.906 47.625,25.374 47.625,24.077 C47.625,22.693 47.578,22.514 44.1,21.669 C38.833,20.376 38.341,18.942 38.341,14.882 C38.341,10.283 40.123,8.365 46.647,8.365 C48.297,8.365 51.336,8.587 52.932,9.718 L52.932,14.719 C51.336,13.718 48.383,13.449 46.687,13.449 C44.812,13.449 44.366,13.944 44.366,14.925 C44.366,16.266 44.545,16.445 47.133,17.024 C53.337,18.407 53.783,19.747 53.783,24.077 C53.783,28.539 51.914,31 45.703,31" id="Fill-4"></path>
                                <path d="M63.54,8.807 L63.54,23.635 C63.54,24.615 63.986,25.197 65.103,25.197 C66.267,25.197 67.703,24.908 69.087,24.15 L69.087,8.807 L75.518,8.807 L75.518,30.551 L70.742,30.551 L70.071,28.898 C67.391,30.192 64.617,31 62.116,31 C58.405,31 57.115,28.23 57.115,24.033 L57.115,8.807 L63.54,8.807" id="Fill-5"></path>
                                <path d="M89.537,21.692 L86.458,21.692 C85.074,21.692 84.536,22.558 84.536,23.765 C84.536,24.965 85.029,25.995 86.279,25.995 C87.615,25.995 88.56,25.68 89.537,25.237 L89.537,21.692 L89.537,21.692 Z M90.695,30.551 L90.249,29.168 C87.755,30.551 85.521,31 84.051,31 C80.033,31 78.377,27.555 78.377,23.851 C78.377,19.477 80.386,17.229 84.856,17.229 L89.537,17.229 L89.537,16.625 C89.537,14.39 89.125,13.306 85.694,13.306 C83.772,13.306 81.044,13.888 79.608,14.234 L79.608,9.379 C81.044,8.807 84.27,8.365 86.771,8.365 C94.32,8.365 95.969,10.639 95.969,16.665 L95.969,30.551 L90.695,30.551 L90.695,30.551 Z" id="Fill-6"></path>
                                <path d="M99.52,30.551 L99.52,0.819 C99.52,0.819 105.945,0.387 105.945,3.839 L105.945,30.551 L99.52,30.551" id="Fill-7"></path>
                                <path d="M122.631,30.551 L122.631,16.179 C122.631,15.191 122.186,14.613 121.069,14.613 C119.904,14.613 117.763,14.969 116.379,15.687 L116.379,30.551 L109.948,30.551 L109.948,0.819 C109.948,0.819 116.286,0.387 116.286,3.839 L116.286,10.37 C118.92,9.166 121.554,8.365 124.054,8.365 C127.766,8.365 129.056,11.131 129.056,15.328 L129.056,30.551 L122.631,30.551" id="Fill-8"></path>
                                <path d="M143.993,16.179 C143.993,14.66 143.547,13.409 141.313,13.409 C139.078,13.409 138.366,14.66 138.366,16.179 L138.366,17.11 L143.993,17.11 L143.993,16.179 L143.993,16.179 Z M138.366,21.932 L138.366,22.558 C138.366,25.061 139.351,25.729 142.297,25.729 C144.306,25.729 148.143,25.396 150.065,24.811 L150.065,29.431 C148.097,30.142 144.704,31 141.672,31 C134.615,31 131.936,27.512 131.936,22.158 L131.936,17.07 C131.936,12.382 134.037,8.365 141.266,8.365 C148.502,8.365 150.065,12.647 150.065,17.38 L150.065,21.932 L138.366,21.932 L138.366,21.932 Z" id="Fill-9"></path>
                                <path d="M159.875,17.293 L159.875,30.551 L153.45,30.551 L153.45,8.793 L158.804,8.807 L159.25,10.912 C160.593,10.017 162.781,7.151 168.355,8.817 C168.355,8.817 167.51,9.841 166.698,11.523 C165.887,13.203 165.634,14.436 165.634,14.436 C162.249,13.995 160.899,16.102 159.875,17.293" id="Fill-10"></path>
                                <path d="M181.569,22.381 L181.569,16.98 C181.569,14.925 180.498,13.768 178.178,13.768 C175.857,13.768 174.785,14.925 174.785,16.98 L174.785,22.381 C174.785,24.433 175.857,25.597 178.178,25.597 C180.498,25.597 181.569,24.433 181.569,22.381 L181.569,22.381 Z M168.355,22.205 L168.355,17.157 C168.355,12.691 170.456,8.365 178.178,8.365 C185.899,8.365 188,12.691 188,17.157 L188,22.205 C188,26.667 185.899,31 178.178,31 C170.456,31 168.355,26.667 168.355,22.205 L168.355,22.205 Z" id="Fill-11"></path>
                                <path d="M18.036,30.551 L8.486,30.551 L0.092,0.819 L6.969,0.819 L13.261,24.479 L19.559,0.819 L26.429,0.819 L18.036,30.551" id="Fill-1"></path>
                            </g>
                        </g>
                    </g>
                </g>
            </g>
        </g>
    </g>
</svg>